<svg width="64" height="71" viewBox="0 0 94 71" fill="none" xmlns="http://www.w3.org/2000/svg">
<path d="M0 57.5181V32.9339C0.171707 30.3321 2.96006 28.4535 6.02368 28.4223H20.602C24.769 26.0051 27.7222 22.6503 31.7382 20.2211C33.1556 19.3672 34.2523 18.4178 35.0285 17.3727C37.5519 13.6286 36.0229 9.26962 39.6095 6.28496C46.8168 3.94894 55.4509 7.21689 57.883 12.345C59.7947 16.5328 58.5137 20.7091 56.1366 24.4077C64.742 24.3969 73.3473 24.4496 81.9524 24.4841C88.9581 24.8793 93.9532 28.4419 93.9998 33.5073C93.9807 38.6119 88.1544 42.3241 81.9524 42.4157H71.8286C71.4911 43.9196 70.8331 45.2832 69.8545 46.5068C70.4215 49.6512 69.1238 52.7339 66.6149 54.9565C65.2381 73.1058 33.7585 62.3382 21.9687 62.0679H6.02368C2.555 61.9439 0.04136 59.8438 0 57.5181ZM21.7156 57.5181C31.1489 57.6714 63.3818 68.4437 60.2875 53.0066C63.6986 51.6179 65.0111 47.9013 62.9198 45.551C66.0974 43.184 67.0023 40.2103 63.9322 37.866C66.9693 37.866 69.9727 37.8532 72.9424 37.8278C75.912 37.8023 78.9155 37.7896 81.9526 37.7896C85.4283 37.7343 87.8371 35.8082 87.875 33.5074C87.7956 30.7872 85.0618 29.0618 81.9526 29.0341C70.1724 29.0336 58.5597 28.9586 47.6327 28.9576C48.6162 22.9958 58.0329 14.9005 48.4174 10.204C46.878 9.6329 45.6469 9.3905 44.0388 9.61131C43.7689 9.71325 43.617 9.81526 43.5833 9.9172C43.5495 10.0191 43.499 10.1848 43.4314 10.4142C42.4097 15.1398 41.4558 19.8649 36.5979 22.9931C31.2506 26.0901 28.0976 30.9657 21.969 32.9339H21.7159L21.7156 57.5181Z" fill="#1A0707"/>
</svg>
